<svg width="192" height="192" viewBox="0 0 192 192" fill="none" xmlns="http://www.w3.org/2000/svg">
  <!-- Background Circle -->
  <circle cx="96" cy="96" r="96" fill="url(#gradient)" />
  
  <!-- Gradient Definition -->
  <defs>
    <linearGradient id="gradient" x1="0" y1="0" x2="192" y2="192" gradientUnits="userSpaceOnUse">
      <stop offset="0%" stop-color="#3B82F6" />
      <stop offset="100%" stop-color="#1D4ED8" />
    </linearGradient>
  </defs>
  
  <!-- Calendar Icon -->
  <rect x="48" y="52" width="96" height="88" rx="8" fill="white" fill-opacity="0.2" />
  <rect x="48" y="52" width="96" height="20" rx="8" fill="white" fill-opacity="0.3" />
  
  <!-- Calendar Dots -->
  <circle cx="68" cy="92" r="4" fill="white" />
  <circle cx="88" cy="92" r="4" fill="white" />
  <circle cx="108" cy="92" r="4" fill="white" />
  <circle cx="128" cy="92" r="4" fill="white" />
  
  <circle cx="68" cy="108" r="4" fill="white" />
  <circle cx="88" cy="108" r="4" fill="white" />
  <circle cx="108" cy="108" r="4" fill="white" />
  <circle cx="128" cy="108" r="4" fill="white" />
  
  <circle cx="68" cy="124" r="4" fill="white" />
  <circle cx="88" cy="124" r="4" fill="white" />
  <circle cx="108" cy="124" r="4" fill="#10B981" />
  
  <!-- Wallet/Money Icon Overlay -->
  <path d="M120 110 L132 110 C135 110 137 112 137 115 L137 125 C137 128 135 130 132 130 L120 130 L120 110 Z" fill="#FBBF24" fill-opacity="0.9" />
  <circle cx="128" cy="120" r="2.5" fill="#1F2937" />
</svg>
